<?xml version="1.0" encoding="UTF-8"?>
<svg id="Capa_2" data-name="Capa 2" xmlns="http://www.w3.org/2000/svg" viewBox="0 0 100 78">
  <defs>
    <style>
      .cls-1 {
        fill: #ffb259;
      }
    </style>
  </defs>
  <g id="Capa_1-2" data-name="Capa 1">
    <path class="cls-1" d="m93.5,13H6.5c-3.59,0-6.5-2.91-6.5-6.5S2.91,0,6.5,0h87c3.59,0,6.5,2.91,6.5,6.5s-2.91,6.5-6.5,6.5Z"/>
    <path class="cls-1" d="m93.5,45H6.5c-3.59,0-6.5-2.91-6.5-6.5s2.91-6.5,6.5-6.5h87c3.59,0,6.5,2.91,6.5,6.5s-2.91,6.5-6.5,6.5Z"/>
    <path class="cls-1" d="m93.5,78H6.5c-3.59,0-6.5-2.91-6.5-6.5s2.91-6.5,6.5-6.5h87c3.59,0,6.5,2.91,6.5,6.5s-2.91,6.5-6.5,6.5Z"/>
  </g>
</svg>