<?xml version="1.0" encoding="UTF-8"?>
<svg id="Capa_2" data-name="Capa 2" xmlns="http://www.w3.org/2000/svg" viewBox="0 0 213.44 51">
  <defs>
    <style>
      .cls-1 {
        fill: #ffb259;
      }

      .cls-2 {
        fill: #b8d8eb;
      }
    </style>
  </defs>
  <g id="Capa_1-2" data-name="Capa 1">
    <g>
      <path class="cls-1" d="m46.02,42.8L28.33,3.27c-.6-1.29-1.56-2.32-2.87-2.87-1.36-.54-3.07-.54-4.44,0-1.22.55-2.32,1.57-2.87,2.87L.47,42.8c-1.22,2.73,0,6.01,2.73,7.17,2.4,1.03,5.73.34,7.17-2.79l1.2-2.64,11.7-26.04,3.92,8.83h0l6.5,14.45h.02l1.13,2.55,1.27,2.85c1.43,3.2,4.91,3.96,7.17,2.79,2.66-1.37,3.96-4.44,2.72-7.17"/>
      <path class="cls-2" d="m28.33,3.27c-.6-1.29-1.56-2.32-2.87-2.87-1.36-.54-3.07-.54-4.44,0-1.23.55-2.32,1.57-2.87,2.87L.47,42.81c-1.22,2.73,0,6.01,2.73,7.17,2.4,1.03,5.73.35,7.17-2.79l1.2-2.63,11.7-26.04,5.91-13.3-.86-1.93Z"/>
      <path class="cls-2" d="m57.11,50.45c-3.01,0-5.47-2.46-5.47-5.46V10.51c0-3,2.46-5.46,5.47-5.46s5.46,2.46,5.46,5.46v34.48c0,3-2.46,5.46-5.46,5.46"/>
      <path class="cls-2" d="m90.78,33.52c0-3.69-2.93-6.62-6.63-6.62s-6.62,2.94-6.62,6.62,2.94,6.62,6.62,6.62,6.63-2.94,6.63-6.62m10.85-12.08v23.9c0,2.8-2.32,5.12-5.12,5.12-1.5,0-2.86-.68-3.82-1.64-2.6,1.37-5.4,2.19-8.54,2.19-9.62,0-17.48-7.85-17.48-17.48s7.85-17.48,17.48-17.48c3.01,0,5.8.82,8.4,2.18.96-1.23,2.32-1.91,3.96-1.91,2.8,0,5.12,2.32,5.12,5.12"/>
      <path class="cls-2" d="m122.88,40.15c3.69,0,6.63-2.93,6.63-6.62s-2.94-6.62-6.63-6.62-6.62,2.93-6.62,6.62,2.93,6.62,6.62,6.62m0-24.1c2.32,0,4.57.48,6.63,1.3v-6.35c0-2.93,2.32-5.39,5.32-5.39h.48c2.74.07,5.05,2.39,5.05,5.19v34.55c0,2.8-2.32,5.12-5.19,5.12-1.5,0-2.8-.61-3.76-1.64-2.52,1.37-5.46,2.18-8.53,2.18-9.62,0-17.48-7.85-17.48-17.48s7.85-17.48,17.48-17.48"/>
      <path class="cls-2" d="m151.3,50.45c-3.01,0-5.47-2.46-5.47-5.46v-20.96c0-3,2.46-5.46,5.47-5.46s5.46,2.46,5.46,5.46v20.96c0,3-2.46,5.46-5.46,5.46"/>
      <path class="cls-1" d="m157.06,11.34c0,3.21-2.62,5.83-5.75,5.83s-5.83-2.62-5.83-5.83,2.62-5.75,5.83-5.75,5.75,2.62,5.75,5.75"/>
      <path class="cls-1" d="m183.33,35.16V12.28c0-3.97,3.26-7.23,7.23-7.23s7.23,3.26,7.23,7.23v8.41h8.41c3.97,0,7.23,3.26,7.23,7.23s-3.27,7.23-7.23,7.23h-22.88Z"/>
      <path class="cls-2" d="m197.8,20.69v22.88c0,3.98-3.26,7.23-7.23,7.23s-7.23-3.26-7.23-7.23v-8.41h-8.41c-3.97,0-7.23-3.26-7.23-7.23s3.27-7.23,7.23-7.23h22.88Z"/>
    </g>
  </g>
</svg>