<?xml version="1.0" encoding="UTF-8"?>
<svg id="Capa_2" data-name="Capa 2" xmlns="http://www.w3.org/2000/svg" viewBox="0 0 1000 996.54">
  <defs>
    <style>
      .cls-1 {
        fill: #a8d1e7;
      }

      .cls-2 {
        opacity: .89;
      }
    </style>
  </defs>
  <g id="Capa_3" data-name="Capa 3">
    <g class="cls-2">
      <g>
        <path class="cls-1" d="m975.03,654.74c-13.78,0-24.96-10.56-24.96-23.58,0-322.01-273.72-583.99-610.16-583.99-13.79,0-24.97-10.56-24.97-23.59S326.12,0,339.91,0c89.21,0,175.73,16.69,257.16,49.61,78.63,31.79,149.22,77.29,209.81,135.25,60.57,57.94,108.12,125.43,141.32,200.6,34.37,77.8,51.8,160.47,51.8,245.7,0,13.02-11.18,23.58-24.97,23.58h0Z"/>
        <path class="cls-1" d="m815.98,586.07c-13.79,0-24.97-10.56-24.97-23.59,0-200.53-170.4-363.67-379.86-363.67-13.79,0-24.97-10.56-24.97-23.59s11.18-23.59,24.97-23.59c58.09,0,114.44,10.87,167.48,32.31,51.2,20.7,97.16,50.33,136.61,88.06,39.43,37.72,70.38,81.65,91.99,130.58,22.37,50.64,33.71,104.43,33.71,159.89,0,13.03-11.17,23.59-24.96,23.59h0Z"/>
        <path class="cls-1" d="m664.39,550.23c-13.79,0-24.97-10.56-24.97-23.58,0-101.19-85.91-183.51-191.52-183.51-13.79,0-24.97-10.56-24.97-23.59s11.18-23.59,24.97-23.59c64.6,0,125.29,24.02,170.88,67.64,45.51,43.54,70.58,101.44,70.58,163.05,0,13.02-11.18,23.58-24.97,23.58h0Z"/>
        <path class="cls-1" d="m0,292.05S0,132.13,135.63,77.47c0,0,2.28-1.01,6.33-2.15,7.89-2.22,16.12-3.01,24.3-2.51,12.82.79,38.97,2.85,50.33,6.88,1.32.47,2.65.9,3.98,1.33,6.19,1.97,25.73,10.97,37.54,48.08l56.68,162.96s16.67,44.14-11.77,67.72c-.91.76-1.81,1.53-2.65,2.36l-52.97,52.97c-6.32,6.32-10.95,14.2-13.02,22.9-1.7,7.11-1.86,15.34,2.64,22.52,1.35,2.16,2.59,4.4,3.62,6.73,12.01,27.16,87.54,181.89,292.78,291.41,0,0,22.27,13.16,47.58-10.12l41.37-40.43c1.76-1.72,3.4-3.57,4.89-5.55,6.6-8.78,32.09-37.21,75.2-20.82l172.05,58.67c1.31.45,2.61.89,3.93,1.3,5.53,1.75,35.81,12.87,41.17,48.54.41,2.73.79,5.47,1.22,8.2,1.81,11.28,5.76,41.91-.75,61.43,0,0-41.5,131.59-223.69,136.65,0,0-119.15.98-246.73-86.4-3.46-2.37-6.98-4.64-10.57-6.8-37.05-22.39-260.79-164.59-379.37-401.76,0,0-59.72-107.29-59.72-209.53h0Z"/>
      </g>
    </g>
  </g>
</svg>